<?xml version="1.0" standalone="no"?>
<!DOCTYPE svg PUBLIC "-//W3C//DTD SVG 20010904//EN"
 "http://www.w3.org/TR/2001/REC-SVG-20010904/DTD/svg10.dtd">
<svg version="1.0" xmlns="http://www.w3.org/2000/svg"
 width="16.000000pt" height="16.000000pt" viewBox="0 0 16.000000 16.000000"
 preserveAspectRatio="xMidYMid meet">
<metadata>
Created by potrace 1.11, written by Peter Selinger 2001-2013
</metadata>
<g transform="translate(0.000000,16.000000) scale(0.008247,-0.008247)"
fill="#000000" stroke="none">
<path d="M0 970 l0 -840 970 0 970 0 0 840 0 840 -970 0 -970 0 0 -840z m1000
240 c69 -35 99 -125 64 -191 -8 -17 -14 -32 -12 -33 2 -1 31 -26 66 -55 46
-39 62 -60 60 -75 -2 -12 -12 -22 -24 -24 -15 -2 -36 14 -75 60 -29 35 -54 64
-55 66 -1 2 -17 -4 -35 -13 -98 -51 -219 38 -206 151 12 108 119 164 217 114z"/>
<path d="M881 1166 c-87 -48 -50 -186 49 -186 51 0 100 49 100 99 0 75 -83
124 -149 87z"/>
</g>
</svg>
